# xmcd CD database file
#
# Track frame offsets:
#	150
#	27990
#	45639
#	74061
#	107034
#	132214
#	158364
#
# Disc length: 2692 seconds
#
# Revision: 0
# Processed by: cddbd v1.5.2PL0 Copyright (c) Steve Scherf et al.
# Submitted via: CDex 1.70beta3
#
DISCID=580a8207
DTITLE=櫻井哲夫 - ブラジル・コネクション　ＶＯＬ．２
DYEAR=2006
DGENRE=Jazz
TTITLE0=パステル・シー
TTITLE1=パフューム・ジ・セボラ
TTITLE2=アリサ
TTITLE3=ジョグラウ
TTITLE4=コン・ア・パス・ノ・コラサォン
TTITLE5=ボッカ・ジ・レオン
TTITLE6=レッド・ゾーン
EXTD=YEAR: 2006
EXTT0=
EXTT1=
EXTT2=
EXTT3=
EXTT4=
EXTT5=
EXTT6=
PLAYORDER=
